<svg xmlns="http://www.w3.org/2000/svg" xmlns:xlink="http://www.w3.org/1999/xlink" viewBox="0 0 169.37 146.89"><defs><style>.cls-1{fill:url(#linear-gradient);}.cls-2{fill:url(#linear-gradient-2);}.cls-3{fill:url(#linear-gradient-3);}.cls-4{fill:url(#linear-gradient-4);}.cls-5{fill:url(#linear-gradient-5);}.cls-6{fill:url(#linear-gradient-6);}.cls-7{fill:url(#linear-gradient-7);}.cls-8{fill:url(#linear-gradient-8);}.cls-9{fill:url(#linear-gradient-9);}.cls-10{fill:url(#linear-gradient-10);}.cls-11{fill:url(#linear-gradient-11);}.cls-12{fill:url(#linear-gradient-12);}.cls-13{fill:url(#linear-gradient-13);}.cls-14{fill:url(#linear-gradient-14);}.cls-15{fill:url(#linear-gradient-15);}.cls-16{fill:url(#linear-gradient-16);}.cls-17{fill:url(#linear-gradient-17);}.cls-18{fill:url(#linear-gradient-18);}.cls-19{fill:url(#linear-gradient-19);}.cls-20{fill:url(#linear-gradient-20);}.cls-21{fill:url(#linear-gradient-21);}.cls-22{fill:url(#linear-gradient-22);}.cls-23{fill:url(#linear-gradient-23);}.cls-24{fill:url(#linear-gradient-24);}.cls-25{fill:url(#linear-gradient-25);}.cls-26{fill:url(#linear-gradient-26);}.cls-27{fill:url(#linear-gradient-27);}.cls-28{fill:url(#linear-gradient-28);}.cls-29{fill-rule:evenodd;fill:url(#linear-gradient-29);}.cls-30{fill:#fff;}</style><linearGradient id="linear-gradient" x1="-2976.96" y1="91.83" x2="-2959.87" y2="91.83" gradientTransform="matrix(-1, 0, 0, 1, -2807.73, 0)" gradientUnits="userSpaceOnUse"><stop offset="0" stop-color="#6b7ef7"/><stop offset="1" stop-color="#05d2dd"/></linearGradient><linearGradient id="linear-gradient-2" x1="-2973.7" y1="104.81" x2="-2956.16" y2="104.81" xlink:href="#linear-gradient"/><linearGradient id="linear-gradient-3" x1="-2966.55" y1="114.43" x2="-2949.86" y2="114.43" xlink:href="#linear-gradient"/><linearGradient id="linear-gradient-4" x1="-2956.11" y1="120.26" x2="-2936.89" y2="120.26" xlink:href="#linear-gradient"/><linearGradient id="linear-gradient-5" x1="-2943.09" y1="122.77" x2="-2919.98" y2="122.77" xlink:href="#linear-gradient"/><linearGradient id="linear-gradient-6" x1="-2928.36" y1="122.52" x2="-2902.81" y2="122.52" xlink:href="#linear-gradient"/><linearGradient id="linear-gradient-7" x1="-2913.23" y1="119.58" x2="-2885.46" y2="119.58" xlink:href="#linear-gradient"/><linearGradient id="linear-gradient-8" x1="-2899.36" y1="113.94" x2="-2868.26" y2="113.94" xlink:href="#linear-gradient"/><linearGradient id="linear-gradient-9" x1="-2886.47" y1="106.12" x2="-2852.56" y2="106.12" xlink:href="#linear-gradient"/><linearGradient id="linear-gradient-10" x1="-2874.89" y1="96.75" x2="-2838.08" y2="96.75" xlink:href="#linear-gradient"/><linearGradient id="linear-gradient-11" x1="-2864.96" y1="86.1" x2="-2825.67" y2="86.1" xlink:href="#linear-gradient"/><linearGradient id="linear-gradient-12" x1="-2857.01" y1="74.43" x2="-2816.08" y2="74.43" xlink:href="#linear-gradient"/><linearGradient id="linear-gradient-13" x1="-2851.39" y1="61.59" x2="-2809.92" y2="61.59" xlink:href="#linear-gradient"/><linearGradient id="linear-gradient-14" x1="-2848.42" y1="47.47" x2="-2807.73" y2="47.47" xlink:href="#linear-gradient"/><linearGradient id="linear-gradient-15" x1="-2849.57" y1="32.54" x2="-2808.57" y2="32.54" xlink:href="#linear-gradient"/><linearGradient id="linear-gradient-16" x1="-2853.98" y1="18.92" x2="-2815.5" y2="18.92" xlink:href="#linear-gradient"/><linearGradient id="linear-gradient-17" x1="-2860.88" y1="10.23" x2="-2828.3" y2="10.23" xlink:href="#linear-gradient"/><linearGradient id="linear-gradient-18" x1="-2869.91" y1="6.12" x2="-2844.16" y2="6.12" xlink:href="#linear-gradient"/><linearGradient id="linear-gradient-19" x1="-2880.67" y1="4.51" x2="-2860.92" y2="4.51" xlink:href="#linear-gradient"/><linearGradient id="linear-gradient-20" x1="-2892.81" y1="5.44" x2="-2878.06" y2="5.44" xlink:href="#linear-gradient"/><linearGradient id="linear-gradient-21" x1="-2905.93" y1="9.11" x2="-2895.36" y2="9.11" xlink:href="#linear-gradient"/><linearGradient id="linear-gradient-22" x1="-2920.84" y1="15.39" x2="-2912.73" y2="15.39" xlink:href="#linear-gradient"/><linearGradient id="linear-gradient-23" x1="-2935.92" y1="23.6" x2="-2925.4" y2="23.6" xlink:href="#linear-gradient"/><linearGradient id="linear-gradient-24" x1="-2949.3" y1="33.16" x2="-2936.59" y2="33.16" xlink:href="#linear-gradient"/><linearGradient id="linear-gradient-25" x1="-2960.67" y1="44.7" x2="-2946.04" y2="44.7" xlink:href="#linear-gradient"/><linearGradient id="linear-gradient-26" x1="-2969.63" y1="57.33" x2="-2953.42" y2="57.33" xlink:href="#linear-gradient"/><linearGradient id="linear-gradient-27" x1="-2975.53" y1="70.63" x2="-2958.4" y2="70.63" xlink:href="#linear-gradient"/><linearGradient id="linear-gradient-28" x1="-2977.1" y1="84.8" x2="-2960.62" y2="84.8" xlink:href="#linear-gradient"/><linearGradient id="linear-gradient-29" x1="36.48" y1="228.69" x2="112.41" y2="228.69" gradientTransform="translate(-6.69 -162.6) rotate(-7.61)" xlink:href="#linear-gradient"/></defs><g id="Layer_2" data-name="Layer 2"><g id="Layer_1-2" data-name="Layer 1"><path class="cls-1" d="M167.55,107.44a53.47,53.47,0,0,0,1.62-9.37c.73-8.73-5.41-17.55-16.28-21.85a25.29,25.29,0,0,1-.75,4.39c12,5.75,18.07,17,15.41,26.83"/><path class="cls-2" d="M159.07,124.84c.83-1.19,2-2.76,2.73-4s1.62-2.82,2.24-4.06c5.24-10.62-.5-24.62-13.46-32-.29.6-.62,1.18-1,1.75s-.77,1.17-1.19,1.73c13,8.63,18.26,24.35,11.65,35.11-.32.51-.65,1-1,1.47"/><path class="cls-3" d="M145.3,137.42a51.73,51.73,0,0,0,7.15-5.39,18.06,18.06,0,0,0,3.35-4c6.61-10.76,2-27.13-10.3-36.56A25.06,25.06,0,0,1,142.13,94c11.46,10.07,15.38,27,8.77,37.71a17.62,17.62,0,0,1-5.6,5.75"/><path class="cls-4" d="M129.16,144.42l3.06-.92c1.5-.55,3.5-1.25,5-1.86a16.86,16.86,0,0,0,7.72-6.86c6.61-10.76,3.52-28.08-6.9-38.68a35.93,35.93,0,0,1-4.39,1.51c9.3,11,11.49,28.61,4.89,39.37a16.11,16.11,0,0,1-9.35,7.44"/><path class="cls-5" d="M112.25,146.89c2.47-.16,5.77-.41,8.23-.7,4-.56,7.77-3.12,10.58-7.7,6.61-10.76,5.47-28.6-2.56-39.85a48.43,48.43,0,0,1-5.24.45c6.7,11.35,6.78,29.28.17,40-3.09,5-7.1,7.6-11.18,7.75"/><path class="cls-6" d="M95.08,145.78l2.16.31c1.87.2,4.36.5,6.23.64,3.91.25,8-2.32,11.36-7.76,6.6-10.76,7.73-28.67,2.52-40q-2.88-.19-5.91-.67c3.73,11.16,1.39,28.92-5.22,39.68-3.53,5.76-7.58,8.35-11.14,7.8"/><path class="cls-7" d="M77.73,141.53c2.29.69,5.32,1.63,7.63,2.23l.82.21c11.09,1.58,21.94-29.87,18.75-47-2.1-.51-4.23-1.13-6.39-1.84.48,10.36-4.49,27.48-11.1,38.24-3.8,6.19-7.32,8.93-9.71,8.16"/><path class="cls-8" d="M60.53,134.41c2.46,1.16,5.73,2.7,8.22,3.77,1.63.67,4.74-2.23,8.63-8.57,6.61-10.76,13-27.35,14.25-37.06-2.18-.91-4.32-1.9-6.41-3-2.88,9-10.57,25-17.18,35.73-3.94,6.42-6.61,9.52-7.51,9.08"/><path class="cls-9" d="M44.91,125.18l3.6,2.39,3.79,2.34c.15.07,2.35-3.29,6.31-9.74,6.61-10.76,15.62-26,20.13-34.11-2-1.18-3.94-2.43-5.82-3.72C67,89.48,56.75,104,50.14,114.75c-4,6.44-5.73,10.08-5.23,10.43"/><path class="cls-10" d="M31,114.19c1.94,1.69,4.52,3.93,6.52,5.55-1.1-.88.26-4.81,4.19-11.2,6.6-10.76,18-24.4,25.41-30.47-1.76-1.39-3.44-2.83-5.06-4.3-8.7,5-21.11,17.74-27.72,28.5-3.86,6.28-4.88,10.5-3.34,11.92"/><path class="cls-11" d="M19.14,101.63l2,2.37,3.55,3.93C18.78,100,41.26,75.26,57.23,69q-2.19-2.31-4.14-4.7c-11,2.59-25.21,13.41-31.82,24.17-3.65,5.94-4.2,10.61-2.13,13.18"/><path class="cls-12" d="M9.5,87.51c1.29,2.15,3,5,4.39,7.09-2.1-3.09-1.66-7.9,1.83-13.58,6.61-10.76,21.63-20.54,33.56-21.85-1.11-1.62-2.13-3.27-3.05-4.91-12.69.07-28.34,8.85-34.95,19.61C8,79.2,7.57,84,9.5,87.51"/><path class="cls-13" d="M2.73,71.65l.63,2C4,75.45,4.87,77.84,5.6,79.59,4,75.83,4.53,71.15,7.53,66.26,14.14,55.5,30.31,47.79,43.66,49a45.36,45.36,0,0,1-1.8-4.94c-13.79-2.48-30.33,4.22-36.94,15C2.23,63.46,1.6,67.83,2.73,71.65"/><path class="cls-14" d="M0,53.69c.1,2.42.31,5.65.56,8.06l.15,1A16.34,16.34,0,0,1,3.21,51.6C9.82,40.84,26.6,35.18,40.69,39a30.84,30.84,0,0,1-.38-4.76c-14.19-5-31-.29-37.65,10.47a17.18,17.18,0,0,0-2.66,9"/><path class="cls-15" d="M3.33,34.76,2.15,38.29c-.41,1.67-1,3.9-1.31,5.59a18.21,18.21,0,0,1,2.4-6.24c6.61-10.76,23.39-14.46,37.47-8.26a24.1,24.1,0,0,1,1.13-4.17C28,18,11.49,20.82,4.89,31.58a18,18,0,0,0-1.56,3.18"/><path class="cls-16" d="M13.45,18.31a50.54,50.54,0,0,0-5.68,7.45c6.65-10.66,22.73-12.66,36-4.46a21.07,21.07,0,0,1,2.48-3.24c-11.47-8.18-25.35-7.83-32.8.25"/><path class="cls-17" d="M28.07,7.23,26,8.34c-1.66,1-3.87,2.44-5.47,3.57,7.59-5.68,19.29-4.72,28.93,3.23a27.33,27.33,0,0,1,3.65-2.27c-8-7.59-17.82-9.43-25.08-5.64"/><path class="cls-18" d="M44.5,1.5c-2.22.53-5.17,1.28-7.36,1.94l-.71.23C43,1.43,51.05,3.88,57.54,11a37.91,37.91,0,0,1,4.64-1.24C56.94,3.06,50.35.28,44.5,1.5"/><path class="cls-19" d="M61.52,0H60.33c-2.14.05-5,.12-7.14.27C55.29.22,61.68.05,67.51,9a53.77,53.77,0,0,1,5.43-.17C71.59,6.48,68,.16,61.52,0"/><path class="cls-20" d="M78.72,2c-2-.34-4.61-.84-6.6-1.12L70.33.62c2.87.55,5.92,2,8.7,8.66,2,.23,4,.56,6,1C84.4,8,82.81,2.73,78.72,2"/><path class="cls-21" d="M96.13,7c-2.54-.88-5.93-2-8.5-2.83C89.55,5,91,6.57,91.71,11.9c2.13.62,4.3,1.34,6.48,2.15,0-2,.08-6.24-2.06-7.06"/><path class="cls-22" d="M113,14.72l-3-1.59-5-2.45c.85.39.94,2.45.08,6.25,2.14,1,4.23,2,6.28,3.16,1.49-3.43,2-5.19,1.65-5.37"/><path class="cls-23" d="M128.19,24.42c-2.13-1.5-5-3.51-7.17-5-.14-.08-1.24,1.33-3.35,4.36q2.91,1.88,5.64,3.89c2.71-2.67,4.34-3.71,4.88-3.3"/><path class="cls-24" d="M141.57,35.82,140,34.33c-1.42-1.28-3.28-3-4.73-4.25-.63-.37-1.8-1.06-6.44,2.06q2.52,2.16,4.83,4.43c3.94-1.85,6.61-2,7.88-.75"/><path class="cls-25" d="M152.94,48.78c-1.4-1.76-3.25-4.13-4.7-5.85l-.57-.65c-1.57-1.8-4.76-2.21-9.36-.83,1.37,1.57,2.67,3.17,3.87,4.78,2.59-.35,8-1.08,10.76,2.55"/><path class="cls-26" d="M161.9,63.29l-.48-.95c-1-1.9-2.43-4.44-3.54-6.3-2.48-3.47-6-4.82-12.19-4.66,1,1.64,1.93,3.29,2.74,4.94,3.06.24,10.21.82,13.47,7"/><path class="cls-27" d="M167.8,79.72c-.51-1.94-1.19-4.53-1.79-6.45l-.63-1.81c-.95-2.24-3.49-8.2-14.71-9.92a41.93,41.93,0,0,1,1.44,4.91c8.72,2,14.32,7.08,15.69,13.27"/><path class="cls-28" d="M169.17,98.07a55.11,55.11,0,0,0,0-9.13c-1-8.29-6.36-14-16.3-17.4a29.24,29.24,0,0,1,0,4.68c10.87,4.3,17,13.12,16.28,21.85"/><path class="cls-29" d="M108.07,28.42c14.5,6.68,34.87,27.28,27.34,45.48-7.92,19.15-35.06,12.5-48.77,6.18C72.15,73.4,52.1,53.48,59.3,34.59,66.8,14.91,95.47,22.61,108.07,28.42Z"/><path class="cls-30" d="M112.17,48.19c4.64,7.3,7,11,11.62,18.25-.76,1.35-1.13,2-1.88,3.38L101.71,67c.84-1.52,1.27-2.28,2.11-3.79L118.29,65l-8.23-13C110.9,50.46,111.32,49.7,112.17,48.19Z"/><path class="cls-30" d="M87.2,64.15l-2.93-2L110.8,39.33l2.94,2Z"/><path class="cls-30" d="M79.45,39.17l8.14,13.22c-.85,1.52-1.27,2.27-2.11,3.79L73.9,37.86l1.88-3.38,20.16,2.9c-.85,1.52-1.27,2.27-2.11,3.79Z"/></g></g></svg>