<svg xmlns="http://www.w3.org/2000/svg" viewBox="0 0 114.02 98.89"><defs><style>.cls-1,.cls-2{fill:#6b7ef7;}.cls-2{fill-rule:evenodd;}</style></defs><g id="Layer_2" data-name="Layer 2"><g id="Layer_1-2" data-name="Layer 1"><path class="cls-1" d="M112.8,72.33a36.17,36.17,0,0,0,1.09-6.3c.49-5.89-3.64-11.82-11-14.72a17.25,17.25,0,0,1-.51,3c8.06,3.87,12.17,11.42,10.38,18.06"/><path class="cls-1" d="M107.09,84.05c.56-.8,1.32-1.86,1.84-2.69s1.09-1.9,1.51-2.74c3.52-7.14-.34-16.57-9.07-21.55a12.23,12.23,0,0,1-.65,1.18,13.31,13.31,0,0,1-.79,1.17c8.77,5.81,12.29,16.39,7.84,23.64-.22.34-.44.67-.68,1"/><path class="cls-1" d="M97.82,92.51a35,35,0,0,0,4.81-3.62,12.26,12.26,0,0,0,2.26-2.72c4.45-7.24,1.34-18.26-6.94-24.61a17.56,17.56,0,0,1-2.26,1.7C103.4,70,106,81.4,101.59,88.64a11.84,11.84,0,0,1-3.77,3.87"/><path class="cls-1" d="M87,97.22,89,96.61c1-.37,2.35-.85,3.34-1.26a11.31,11.31,0,0,0,5.19-4.61c4.45-7.25,2.37-18.91-4.64-26a21.91,21.91,0,0,1-3,1C96.22,73.1,97.69,85,93.24,92.22a10.76,10.76,0,0,1-6.29,5"/><path class="cls-1" d="M75.57,98.89c1.66-.11,3.88-.28,5.54-.47,2.7-.38,5.23-2.11,7.12-5.19C92.68,86,91.91,74,86.51,66.41a32.91,32.91,0,0,1-3.53.3c4.51,7.64,4.56,19.71.11,27-2.08,3.39-4.78,5.12-7.52,5.22"/><path class="cls-1" d="M64,98.14l1.46.21c1.25.14,2.93.34,4.19.43,2.63.17,5.39-1.56,7.64-5.23,4.45-7.24,5.21-19.29,1.7-26.92-1.29-.09-2.62-.24-4-.45,2.5,7.51.93,19.47-3.52,26.71-2.38,3.88-5.1,5.62-7.5,5.25"/><path class="cls-1" d="M52.33,95.28c1.54.46,3.58,1.09,5.13,1.5l.56.14C65.48,98,72.79,76.82,70.64,65.28c-1.41-.34-2.85-.76-4.3-1.24.32,7-3,18.5-7.47,25.75-2.56,4.16-4.93,6-6.54,5.49"/><path class="cls-1" d="M40.75,90.49c1.65.77,3.86,1.81,5.53,2.53,1.1.46,3.19-1.5,5.81-5.76,4.45-7.25,8.75-18.42,9.6-25q-2.2-.91-4.32-2c-1.94,6-7.11,16.81-11.56,24.05-2.66,4.32-4.45,6.41-5.06,6.12"/><path class="cls-1" d="M30.23,84.27l2.43,1.61,2.55,1.57a64.76,64.76,0,0,0,4.25-6.55C43.91,73.65,50,63.37,53,57.94q-2-1.2-3.92-2.51A226.06,226.06,0,0,0,33.75,77.25c-2.66,4.34-3.85,6.78-3.52,7"/><path class="cls-1" d="M20.9,76.87c1.3,1.14,3,2.65,4.38,3.74-.73-.59.18-3.24,2.82-7.54,4.45-7.24,12.11-16.43,17.11-20.51-1.18-.94-2.32-1.91-3.4-2.9C36,53,27.6,61.6,23.15,68.85c-2.6,4.23-3.29,7.07-2.25,8"/><path class="cls-1" d="M12.88,68.42,14.22,70l2.38,2.64c-4-5.34,11.18-22,21.93-26.22-1-1-1.92-2.1-2.79-3.17-7.38,1.75-17,9-21.42,16.28-2.45,4-2.83,7.14-1.44,8.87"/><path class="cls-1" d="M6.4,58.92c.86,1.44,2,3.36,2.95,4.77-1.41-2.08-1.11-5.32,1.23-9.14C15,47.3,25.15,40.72,33.18,39.84c-.75-1.1-1.44-2.2-2.05-3.31-8.55,0-19.08,5.95-23.53,13.2-2.21,3.59-2.5,6.83-1.2,9.19"/><path class="cls-1" d="M1.83,48.24l.43,1.35c.44,1.2,1,2.81,1.51,4-1.06-2.53-.72-5.68,1.3-9C9.52,37.37,20.41,32.17,29.39,33a32.51,32.51,0,0,1-1.21-3.32C18.89,28,7.76,32.53,3.31,39.78a10.42,10.42,0,0,0-1.48,8.46"/><path class="cls-1" d="M0,36.14c.06,1.63.21,3.81.38,5.43l.1.66a11,11,0,0,1,1.68-7.49c4.45-7.25,15.75-11.06,25.23-8.51a21.88,21.88,0,0,1-.25-3.2c-9.55-3.36-20.9-.2-25.35,7A11.55,11.55,0,0,0,0,36.14"/><path class="cls-1" d="M2.24,23.4l-.79,2.37C1.17,26.9.79,28.4.57,29.54a12.25,12.25,0,0,1,1.61-4.2c4.45-7.24,15.75-9.73,25.23-5.56A15.67,15.67,0,0,1,28.17,17C18.88,12.1,7.74,14,3.29,21.26a12.47,12.47,0,0,0-1,2.14"/><path class="cls-1" d="M9.06,12.33a33.53,33.53,0,0,0-3.83,5c4.48-7.17,15.3-8.52,24.23-3a14.81,14.81,0,0,1,1.67-2.18c-7.72-5.51-17.06-5.28-22.07.17"/><path class="cls-1" d="M18.9,4.87l-1.37.74c-1.12.7-2.6,1.65-3.68,2.41,5.11-3.83,13-3.18,19.48,2.17a18.32,18.32,0,0,1,2.45-1.52c-5.4-5.11-12-6.36-16.88-3.8"/><path class="cls-1" d="M30,1c-1.5.36-3.49.86-5,1.3l-.47.16C29,1,34.37,2.61,38.74,7.41a26.34,26.34,0,0,1,3.12-.83C38.33,2.06,33.9.19,30,1"/><path class="cls-1" d="M41.42,0h-.81c-1.44,0-3.36.08-4.8.18,1.41,0,5.71-.14,9.64,5.9A33.79,33.79,0,0,1,49.11,6c-.92-1.61-3.35-5.86-7.69-6"/><path class="cls-1" d="M53,1.32c-1.33-.23-3.1-.56-4.44-.75L47.35.42c1.93.37,4,1.33,5.85,5.83,1.33.16,2.69.37,4.07.65C56.82,5.39,55.75,1.84,53,1.32"/><path class="cls-1" d="M64.72,4.7C63,4.11,60.73,3.33,59,2.8c1.29.53,2.25,1.62,2.74,5.21,1.44.42,2.89.9,4.37,1.45,0-1.36,0-4.2-1.39-4.76"/><path class="cls-1" d="M76.08,9.91l-2-1.07L70.69,7.19c.57.26.63,1.65,0,4.2q2.16,1,4.23,2.13c1-2.3,1.34-3.49,1.11-3.61"/><path class="cls-1" d="M86.3,16.44c-1.44-1-3.36-2.36-4.83-3.33A15.24,15.24,0,0,0,79.22,16c1.3.84,2.57,1.72,3.79,2.62,1.83-1.79,2.92-2.5,3.29-2.22"/><path class="cls-1" d="M95.31,24.12l-1-1c-1-.86-2.21-2-3.18-2.86-.43-.25-1.21-.71-4.34,1.39,1.13,1,2.22,2,3.25,3,2.66-1.25,4.45-1.35,5.31-.5"/><path class="cls-1" d="M103,32.84c-.94-1.19-2.18-2.78-3.16-3.94l-.39-.44c-1-1.21-3.2-1.49-6.3-.55C94,29,94.91,30,95.72,31.12c1.74-.23,5.36-.72,7.24,1.72"/><path class="cls-1" d="M109,42.61l-.32-.64c-.7-1.28-1.63-3-2.39-4.24-1.66-2.34-4-3.25-8.2-3.14.68,1.1,1.3,2.21,1.85,3.33,2,.16,6.87.55,9.06,4.69"/><path class="cls-1" d="M113,53.67c-.35-1.31-.81-3.05-1.21-4.34l-.42-1.22c-.65-1.51-2.35-5.52-9.91-6.68a28.62,28.62,0,0,1,1,3.3c5.86,1.32,9.63,4.77,10.56,8.94"/><path class="cls-1" d="M113.89,66a38.18,38.18,0,0,0,0-6.14c-.7-5.59-4.28-9.42-11-11.72a20.7,20.7,0,0,1,0,3.15c7.32,2.9,11.45,8.83,11,14.71"/><path class="cls-2" d="M72.75,19.13c10.65,5.78,23.06,19,18.41,30.62s-23.1,9.07-32.83,4.16C48,48.71,35.4,34.45,39.92,23.29,44.59,11.77,62.92,13.79,72.75,19.13Z"/></g></g></svg>