<svg xmlns="http://www.w3.org/2000/svg" xmlns:xlink="http://www.w3.org/1999/xlink" viewBox="0 0 256.02 86.38"><defs><style>.cls-1{fill:url(#linear-gradient);}.cls-2{fill:url(#linear-gradient-2);}.cls-3{fill:url(#linear-gradient-3);}.cls-4{fill:url(#linear-gradient-4);}.cls-5{fill:url(#linear-gradient-5);}.cls-6{fill:url(#linear-gradient-6);}.cls-7{fill:url(#linear-gradient-7);}.cls-8{fill:url(#linear-gradient-8);}.cls-9{fill:url(#linear-gradient-9);}.cls-10{fill:url(#linear-gradient-10);}.cls-11{fill:url(#linear-gradient-11);}.cls-12{fill:url(#linear-gradient-12);}.cls-13{fill:url(#linear-gradient-13);}</style><linearGradient id="linear-gradient" x1="16.89" y1="27.75" x2="16.89" y2="1.53" gradientUnits="userSpaceOnUse"><stop offset="0" stop-color="#6b7ef7"/><stop offset="1" stop-color="#05d2dd"/></linearGradient><linearGradient id="linear-gradient-2" x1="44.29" y1="28.16" x2="44.29" y2="9.28" xlink:href="#linear-gradient"/><linearGradient id="linear-gradient-3" x1="64.27" y1="27.75" x2="64.27" y2="0" xlink:href="#linear-gradient"/><linearGradient id="linear-gradient-4" x1="83.86" y1="28.16" x2="83.86" y2="9.28" xlink:href="#linear-gradient"/><linearGradient id="linear-gradient-5" x1="118.43" y1="27.75" x2="118.43" y2="1.53" xlink:href="#linear-gradient"/><linearGradient id="linear-gradient-6" x1="144.98" y1="36.35" x2="144.98" y2="9.64" xlink:href="#linear-gradient"/><linearGradient id="linear-gradient-7" x1="35.77" y1="85.63" x2="35.77" y2="37.04" xlink:href="#linear-gradient"/><linearGradient id="linear-gradient-8" x1="84.81" y1="86.38" x2="84.81" y2="51.4" xlink:href="#linear-gradient"/><linearGradient id="linear-gradient-9" x1="120.73" y1="86.38" x2="120.73" y2="34.2" xlink:href="#linear-gradient"/><linearGradient id="linear-gradient-10" x1="158.03" y1="86.38" x2="158.03" y2="51.4" xlink:href="#linear-gradient"/><linearGradient id="linear-gradient-11" x1="184.94" y1="85.63" x2="184.94" y2="36.3" xlink:href="#linear-gradient"/><linearGradient id="linear-gradient-12" x1="209.34" y1="86.38" x2="209.34" y2="41.68" xlink:href="#linear-gradient"/><linearGradient id="linear-gradient-13" x1="240.14" y1="86.38" x2="240.14" y2="51.4" xlink:href="#linear-gradient"/></defs><g id="Layer_2" data-name="Layer 2"><g id="Layer_1-2" data-name="Layer 1"><path class="cls-1" d="M33.53,5.37h-3.3V23.92h3v3.83h-10V23.92h2.58V11.38h-.16L18,25.9H16L7.92,11H7.76V23.92H10.5v3.83H.58V23.92h3V5.37H.25V1.53h7.1L17,19.4h.17L26.39,1.53h7.14Z"/><path class="cls-2" d="M36.88,11a18,18,0,0,1,3.59-1.33,16.39,16.39,0,0,1,3.63-.36,7.87,7.87,0,0,1,5,1.53A5.5,5.5,0,0,1,51,15.41v8.15c0,1.08.45,1.61,1.33,1.61A3.41,3.41,0,0,0,53.3,25l0,2.38a5.72,5.72,0,0,1-2.9.77q-3.44,0-3.71-3.59v-.08A8.62,8.62,0,0,1,44.45,27a5.86,5.86,0,0,1-3.65,1.13A7,7,0,0,1,37.06,27a4.38,4.38,0,0,1-1.83-4q0-3.34,2.66-4.41a15.23,15.23,0,0,1,5.77-1.07c.51,0,1,0,1.57,0s1,.07,1.5.12v-1a7.11,7.11,0,0,0-.57-2.9q-.57-1.29-2.82-1.29a10.1,10.1,0,0,0-1.6.12,4.73,4.73,0,0,0-1.43.48l-.73,2.78-3.46-.36Zm9.85,9.6v-.64l-1.42-.16a12.07,12.07,0,0,0-1.49-.08,7.11,7.11,0,0,0-2.88.56,2.22,2.22,0,0,0-1.27,2.26c0,1.64.87,2.46,2.62,2.46a4.53,4.53,0,0,0,2.9-1.11A4.41,4.41,0,0,0,46.73,20.57Z"/><path class="cls-3" d="M74.68,27.75h-9v-3.3h2.09L64,19.93h-2.9v4.52h2v3.3H54v-3.3h2.7V3.31H53.87V0h7.18V16.82h3.1L67.34,13H65V9.64h8.83V13H71.54l-4.28,5,5.49,6.46h1.93Z"/><path class="cls-4" d="M92.43,22.23a6.14,6.14,0,0,1-2.34,4.15,8.62,8.62,0,0,1-5.77,1.78,9.24,9.24,0,0,1-6.49-2.32C76.13,24.29,75.29,22,75.29,19a10.47,10.47,0,0,1,2.32-6.94A9,9,0,0,1,90,11.52a7.89,7.89,0,0,1,2.24,5.67A13.3,13.3,0,0,1,92,19.61H79.81c.24,3.38,1.85,5.08,4.84,5.08a3.88,3.88,0,0,0,3-1,4.94,4.94,0,0,0,1.19-2.14Zm-4.6-5.29a4.68,4.68,0,0,0-.74-3,3.32,3.32,0,0,0-3-1.43,3.5,3.5,0,0,0-2.94,1.29,6.28,6.28,0,0,0-1.25,3.18Z"/><path class="cls-5" d="M135.07,5.37h-3.31V23.92h3v3.83h-10V23.92h2.58V11.38h-.16L119.5,25.9h-2l-8-14.89h-.17V23.92H112v3.83h-9.93V23.92h3V5.37h-3.31V1.53h7.1l9.68,17.87h.16l9.2-17.87h7.14Z"/><path class="cls-6" d="M155.24,13h-1.89l-6.06,14.8-2,5.21h2.66v3.39h-9.68V33h3.07l1.77-5-6.41-15h-2V9.64h8.91V13h-2.29l4.19,9.8h.24l3.39-9.8h-2.06V9.64h8.15Z"/><path class="cls-7" d="M71.54,44.15h-4L54.35,85.63H48.22L36.33,51.4H36L24.44,85.63h-6.2l-14-41.48H0V37H18.46v7.11H13.08L21.45,72h.38l9.64-27.8H27.21V37H45.6v7.11h-4l9.64,28.18h.37l7.63-28.18h-6V37H71.54Z"/><path class="cls-8" d="M100.69,75.39a11.43,11.43,0,0,1-4.33,7.7q-3.9,3.28-10.69,3.29a17.15,17.15,0,0,1-12-4.3q-4.71-4.29-4.71-12.67a19.4,19.4,0,0,1,4.3-12.86q4.29-5.14,12-5.15,6.94,0,11,4.14a14.64,14.64,0,0,1,4.15,10.51,24.28,24.28,0,0,1-.45,4.48H77.29Q78,80,86.26,80q3.88,0,5.57-1.87a9.16,9.16,0,0,0,2.21-4ZM92.17,65.6A8.66,8.66,0,0,0,90.79,60c-1.12-1.77-3-2.66-5.65-2.66a6.5,6.5,0,0,0-5.45,2.39,11.83,11.83,0,0,0-2.32,5.91Z"/><path class="cls-9" d="M140.16,68.07a22.29,22.29,0,0,1-3.74,12.7q-3.73,5.61-11.51,5.61t-11.14-6c-.1.6-.22,1.47-.37,2.62s-.28,2-.37,2.61H105.1c.3-1.64.57-3.32.82-5a35.07,35.07,0,0,0,.38-5V40.33h-5V34.2h12.93V58.72a15.26,15.26,0,0,1,4.23-5.16,11.51,11.51,0,0,1,7.36-2.16,13.36,13.36,0,0,1,10.35,4.37Q140.17,60.14,140.16,68.07Zm-8.3.67c0-3.54-.79-6.24-2.39-8.11a7.69,7.69,0,0,0-6.13-2.81A7.89,7.89,0,0,0,116.69,61a11.41,11.41,0,0,0-2.47,6.81v2.39a10.48,10.48,0,0,0,2.43,7A8,8,0,0,0,123,80,7.69,7.69,0,0,0,129.55,77,13.32,13.32,0,0,0,131.86,68.74Z"/><path class="cls-10" d="M172.53,75.62a8.94,8.94,0,0,1-4.3,8,19.86,19.86,0,0,1-10.95,2.77,32.51,32.51,0,0,1-7.22-.82,24.17,24.17,0,0,1-6.54-2.47l1.2-8.67L151,75l-.08,4.33a12.11,12.11,0,0,0,3,.83,20.89,20.89,0,0,0,2.88.22,12.35,12.35,0,0,0,5.34-1.08,3.48,3.48,0,0,0,2.28-3.26,3.07,3.07,0,0,0-2-3,22,22,0,0,0-5.12-1.38,53.32,53.32,0,0,1-6.13-1.34A11.87,11.87,0,0,1,146,67.51c-1.37-1.32-2.06-3.31-2.06-6q0-5.82,4.45-8a21.18,21.18,0,0,1,9.38-2.16,25.73,25.73,0,0,1,12.26,3.06l.82,8.3-6.28.75-.67-5a16.25,16.25,0,0,0-5.9-1.12,7.72,7.72,0,0,0-3.93.93,3.17,3.17,0,0,0-1.61,2.95,3,3,0,0,0,2,2.92,23.77,23.77,0,0,0,5,1.31,51.36,51.36,0,0,1,6,1.34,11.7,11.7,0,0,1,5,2.84C171.85,71,172.53,73,172.53,75.62Z"/><path class="cls-11" d="M194.06,85.63H176.12V79.5h5V58.27h-5.3v-6.2h13.23V79.5h5ZM180.67,45.12V36.3h8.15v8.82Z"/><path class="cls-12" d="M223.58,75.77q-1.41,10.61-11.81,10.61a12.39,12.39,0,0,1-8.56-2.84A10.05,10.05,0,0,1,200,75.62V58H195.1v-5.9H200V41.68h8V52.07h12.49V58H208V74.35q0,5.3,4.64,5.3a5.7,5.7,0,0,0,2.84-.93q1.58-.93,2.17-4.82Z"/><path class="cls-13" d="M256,75.39a11.39,11.39,0,0,1-4.33,7.7q-3.88,3.28-10.69,3.29a17.15,17.15,0,0,1-12-4.3q-4.71-4.29-4.71-12.67a19.45,19.45,0,0,1,4.3-12.86q4.3-5.14,12-5.15,7,0,11,4.14a14.68,14.68,0,0,1,4.15,10.51,24.28,24.28,0,0,1-.45,4.48H232.63q.68,9.42,9,9.42c2.59,0,4.44-.62,5.57-1.87a9.24,9.24,0,0,0,2.2-4ZM247.5,65.6A8.66,8.66,0,0,0,246.12,60q-1.68-2.66-5.64-2.66A6.51,6.51,0,0,0,235,59.69a11.83,11.83,0,0,0-2.32,5.91Z"/></g></g></svg>